<?xml version="1.0" encoding="UTF-8"?>
<svg id="Calque_2" xmlns="http://www.w3.org/2000/svg" version="1.1" xmlns:xlink="http://www.w3.org/1999/xlink" viewBox="0 0 609.2 611">
  <!-- Generator: Adobe Illustrator 30.2.1, SVG Export Plug-In . SVG Version: 2.1.1 Build 1)  -->
  <defs>
    <style>
      .st0 {
        fill: #fff;
      }

      .st1 {
        fill: none;
      }

      .st2 {
        fill: #ea0c0c;
      }

      .st3 {
        fill: #dfdfdf;
      }

      .st4 {
        clip-path: url(#clippath);
      }
    </style>
    <clipPath id="clippath">
      <rect class="st1" width="609.2" height="611"/>
    </clipPath>
  </defs>
  <rect class="st0" width="611" height="611"/>
  <g id="Calque_1-2">
    <g class="st4">
      <g>
        <rect class="st3" x="-121.9" y="-121.9" width="121.9" height="121.9"/>
        <rect class="st3" x="121.9" y="-121.9" width="121.9" height="121.9"/>
        <rect class="st3" x="365.9" y="-121.9" width="121.9" height="121.9"/>
        <rect class="st3" x="-121.9" y="121.9" width="121.9" height="121.9"/>
        <g>
          <rect class="st3" width="121.9" height="121.9"/>
          <rect class="st3" x="121.9" y="121.9" width="121.9" height="121.9"/>
        </g>
        <g>
          <rect class="st3" x="243.9" width="121.9" height="121.9"/>
          <rect class="st3" x="365.9" y="121.9" width="121.9" height="121.9"/>
        </g>
        <rect class="st3" x="487.8" width="122" height="121.9"/>
        <rect class="st3" x="-121.9" y="365.9" width="121.9" height="121.9"/>
        <g>
          <rect class="st3" y="243.9" width="121.9" height="121.9"/>
          <rect class="st3" x="121.9" y="365.9" width="121.9" height="121.9"/>
        </g>
        <g>
          <rect class="st3" x="243.9" y="243.9" width="121.9" height="121.9"/>
          <rect class="st3" x="365.9" y="365.9" width="121.9" height="121.9"/>
        </g>
        <rect class="st3" x="487.8" y="243.9" width="122" height="121.9"/>
        <rect class="st3" x="-121.9" y="609.8" width="121.9" height="122"/>
        <g>
          <rect class="st3" y="487.8" width="121.9" height="122"/>
          <rect class="st3" x="121.9" y="609.8" width="121.9" height="122"/>
        </g>
        <g>
          <rect class="st3" x="243.9" y="487.8" width="121.9" height="122"/>
          <rect class="st3" x="365.9" y="609.8" width="121.9" height="122"/>
        </g>
        <rect class="st3" x="487.8" y="487.8" width="122" height="122"/>
      </g>
    </g>
    <polygon class="st2" points="588 0 0 589.8 0 611 0 611 21.2 611 609.2 21.2 609.2 0 609.2 0 588 0"/>
  </g>
</svg>