<svg width="250" height="150" viewBox="0 0 250 150" fill="none" xmlns="http://www.w3.org/2000/svg">
<rect width="250" height="150" fill="#F5F5F5"/>
<path d="M154.5 78.5V82.5H95.5V78.5H154.5ZM157.5 75.5V40.5C157.5 38.8431 156.157 37.5 154.5 37.5H95.5C93.8431 37.5 92.5 38.8431 92.5 40.5V75.5C92.5 77.1569 93.8431 78.5 95.5 78.5V82.5L95.1396 82.4912C91.5605 82.3097 88.6903 79.4395 88.5088 75.8604L88.5 75.5V40.5C88.5 36.7549 91.4411 33.6963 95.1396 33.5088L95.5 33.5H154.5C158.366 33.5 161.5 36.634 161.5 40.5V75.5C161.5 79.366 158.366 82.5 154.5 82.5V78.5C156.157 78.5 157.5 77.1569 157.5 75.5Z" fill="#434C6D"/>
<path d="M160.567 67.2568L157.433 69.7432L147.26 56.916L134.236 68.7188L143.062 79.751L139.938 82.249L121.32 58.9766L97.4004 82.4277L94.5996 79.5723L121.68 53.0234L131.732 65.5898L147.739 51.084L160.567 67.2568Z" fill="#434C6D"/>
<path d="M110.5 48C110.5 46.067 108.933 44.5 107 44.5C105.067 44.5 103.5 46.067 103.5 48C103.5 49.933 105.067 51.5 107 51.5V54.5C103.41 54.5 100.5 51.5899 100.5 48C100.5 44.4101 103.41 41.5 107 41.5C110.59 41.5 113.5 44.4101 113.5 48C113.5 51.5899 110.59 54.5 107 54.5V51.5C108.933 51.5 110.5 49.933 110.5 48Z" fill="#434C6D"/>
<rect x="75.5" y="94.5" width="99" height="8" rx="4" fill="#434C6D"/>
<rect x="89.5" y="108.5" width="71" height="8" rx="4" fill="#434C6D"/>
</svg>
